<svg xmlns="http://www.w3.org/2000/svg" viewBox="0 0 844 372" width="844" height="372" role="img" aria-label="Árvore de chamadas de Tribonacci f(7) sem cache, com cada nó pintado pelo seu destino com cache." font-family="system-ui, -apple-system, 'Segoe UI', sans-serif">
<style>
  svg {
  --superficie: #fcfcfb; --pagina: #f4f4f1;
  --texto: #14140f; --texto-suave: #52514e; --apagado: #8a8880;
  --grade: #e3e2da; --eixo: #c2c1b6; --borda: rgba(20, 20, 15, 0.12);
  --serie-1: #2a6fd6; --serie-2: #e0662c;
  --sobre-serie-1: #ffffff; --sobre-serie-2: #14140f; }
  @media (prefers-color-scheme: dark) { svg {
  --superficie: #1b1b19; --pagina: #101010;
  --texto: #f7f7f4; --texto-suave: #c4c3ba; --apagado: #8a8880;
  --grade: #2e2e2b; --eixo: #3b3b37; --borda: rgba(255, 255, 255, 0.12);
  --serie-1: #4b90ea; --serie-2: #ef7c43;
  --sobre-serie-1: #101010; --sobre-serie-2: #101010; } }

  .fundo { fill: var(--superficie); }
  .titulo-painel { fill: var(--texto); font-size: 13px; font-weight: 600; }
  .grade { stroke: var(--grade); stroke-width: 1; }
  .linha-base { stroke: var(--eixo); stroke-width: 1; }
  .eixo { fill: var(--apagado); font-size: 11px; font-variant-numeric: tabular-nums; }
  .legenda-texto { fill: var(--texto-suave); font-size: 12px; }
  .serie { fill: none; stroke-width: 2; stroke-linejoin: round; stroke-linecap: round; }
  .serie.s1, .chave-linha.s1 { stroke: var(--serie-1); }
  .serie.s2, .chave-linha.s2 { stroke: var(--serie-2); }
  .chave-linha { stroke-width: 2; stroke-linecap: round; }
  .ponto { stroke: var(--superficie); stroke-width: 2; }
  .ponto.s1 { fill: var(--serie-1); }
  .ponto.s2 { fill: var(--serie-2); }
  .aresta { stroke: var(--eixo); stroke-width: 1.5; }
  .aresta.evitado { stroke: var(--grade); }
  .no circle { stroke: var(--superficie); stroke-width: 2; }
  .no.calculado circle { fill: var(--serie-1); }
  .no.acerto circle { fill: var(--serie-2); }
  .no.base circle { fill: var(--superficie); stroke: var(--eixo); stroke-width: 1.5; }
  .no.evitado circle { fill: var(--superficie); stroke: var(--grade); stroke-width: 1; }
  .no text { font-size: 11px; font-weight: 600; text-anchor: middle; dominant-baseline: central; }
  .no.calculado text { fill: var(--sobre-serie-1); }
  .no.acerto text { fill: var(--sobre-serie-2); }
  .no.base text { fill: var(--texto-suave); }
  .no.evitado text { fill: var(--apagado); font-weight: 400; }
</style>
<rect class="fundo" width="100%" height="100%"/>
<g class="no calculado"><circle cx="25" cy="14" r="6"/></g><text class="legenda-texto" x="38" y="14" dy="0.32em">Calculada pela 1ª vez: 5</text><g class="no base"><circle cx="325" cy="14" r="6"/></g><text class="legenda-texto" x="338" y="14" dy="0.32em">Caso base: 6</text><g class="no acerto"><circle cx="25" cy="36" r="6"/></g><text class="legenda-texto" x="38" y="36" dy="0.32em">Acerto de cache: 5</text><g class="no evitado"><circle cx="325" cy="36" r="6"/></g><text class="legenda-texto" x="338" y="36" dy="0.32em">Evitada pelo cache: 30</text><g transform="translate(0, 44)"><line class="aresta" x1="534.1" y1="30" x2="295.3" y2="84"/><line class="aresta" x1="295.3" y1="84" x2="168.5" y2="138"/><line class="aresta" x1="168.5" y1="138" x2="97.0" y2="192"/><line class="aresta" x1="97.0" y1="192" x2="58.0" y2="246"/><line class="aresta" x1="58.0" y1="246" x2="32.0" y2="300"/><line class="aresta" x1="58.0" y1="246" x2="58.0" y2="300"/><line class="aresta" x1="58.0" y1="246" x2="84.0" y2="300"/><line class="aresta" x1="97.0" y1="192" x2="110.0" y2="246"/><line class="aresta" x1="97.0" y1="192" x2="136.0" y2="246"/><line class="aresta" x1="168.5" y1="138" x2="188.0" y2="192"/><line class="aresta evitado" x1="188.0" y1="192" x2="162.0" y2="246"/><line class="aresta evitado" x1="188.0" y1="192" x2="188.0" y2="246"/><line class="aresta evitado" x1="188.0" y1="192" x2="214.0" y2="246"/><line class="aresta" x1="168.5" y1="138" x2="240.0" y2="192"/><line class="aresta" x1="295.3" y1="84" x2="331.0" y2="138"/><line class="aresta evitado" x1="331.0" y1="138" x2="292.0" y2="192"/><line class="aresta evitado" x1="292.0" y1="192" x2="266.0" y2="246"/><line class="aresta evitado" x1="292.0" y1="192" x2="292.0" y2="246"/><line class="aresta evitado" x1="292.0" y1="192" x2="318.0" y2="246"/><line class="aresta evitado" x1="331.0" y1="138" x2="344.0" y2="192"/><line class="aresta evitado" x1="331.0" y1="138" x2="370.0" y2="192"/><line class="aresta" x1="295.3" y1="84" x2="422.0" y2="138"/><line class="aresta evitado" x1="422.0" y1="138" x2="396.0" y2="192"/><line class="aresta evitado" x1="422.0" y1="138" x2="422.0" y2="192"/><line class="aresta evitado" x1="422.0" y1="138" x2="448.0" y2="192"/><line class="aresta" x1="534.1" y1="30" x2="610.5" y2="84"/><line class="aresta evitado" x1="610.5" y1="84" x2="539.0" y2="138"/><line class="aresta evitado" x1="539.0" y1="138" x2="500.0" y2="192"/><line class="aresta evitado" x1="500.0" y1="192" x2="474.0" y2="246"/><line class="aresta evitado" x1="500.0" y1="192" x2="500.0" y2="246"/><line class="aresta evitado" x1="500.0" y1="192" x2="526.0" y2="246"/><line class="aresta evitado" x1="539.0" y1="138" x2="552.0" y2="192"/><line class="aresta evitado" x1="539.0" y1="138" x2="578.0" y2="192"/><line class="aresta evitado" x1="610.5" y1="84" x2="630.0" y2="138"/><line class="aresta evitado" x1="630.0" y1="138" x2="604.0" y2="192"/><line class="aresta evitado" x1="630.0" y1="138" x2="630.0" y2="192"/><line class="aresta evitado" x1="630.0" y1="138" x2="656.0" y2="192"/><line class="aresta evitado" x1="610.5" y1="84" x2="682.0" y2="138"/><line class="aresta" x1="534.1" y1="30" x2="773.0" y2="84"/><line class="aresta evitado" x1="773.0" y1="84" x2="734.0" y2="138"/><line class="aresta evitado" x1="734.0" y1="138" x2="708.0" y2="192"/><line class="aresta evitado" x1="734.0" y1="138" x2="734.0" y2="192"/><line class="aresta evitado" x1="734.0" y1="138" x2="760.0" y2="192"/><line class="aresta evitado" x1="773.0" y1="84" x2="786.0" y2="138"/><line class="aresta evitado" x1="773.0" y1="84" x2="812.0" y2="138"/><g class="no base"><title>f(2) = 1 — caso base (responde 1 sem tocar no cache)</title><circle cx="32.0" cy="300" r="10.5"/><text x="32.0" y="300">2</text></g><g class="no base"><title>f(1) = 1 — caso base (responde 1 sem tocar no cache)</title><circle cx="58.0" cy="300" r="10.5"/><text x="58.0" y="300">1</text></g><g class="no base"><title>f(0) = 1 — caso base (responde 1 sem tocar no cache)</title><circle cx="84.0" cy="300" r="10.5"/><text x="84.0" y="300">0</text></g><g class="no calculado"><title>f(3) = 3 — calculada pela primeira vez (guarda no cache)</title><circle cx="58.0" cy="246" r="10.5"/><text x="58.0" y="246">3</text></g><g class="no base"><title>f(2) = 1 — caso base (responde 1 sem tocar no cache)</title><circle cx="110.0" cy="246" r="10.5"/><text x="110.0" y="246">2</text></g><g class="no base"><title>f(1) = 1 — caso base (responde 1 sem tocar no cache)</title><circle cx="136.0" cy="246" r="10.5"/><text x="136.0" y="246">1</text></g><g class="no calculado"><title>f(4) = 5 — calculada pela primeira vez (guarda no cache)</title><circle cx="97.0" cy="192" r="10.5"/><text x="97.0" y="192">4</text></g><g class="no evitado"><title>f(2) = 1 — evitada pelo cache (não acontece)</title><circle cx="162.0" cy="246" r="10.5"/><text x="162.0" y="246">2</text></g><g class="no evitado"><title>f(1) = 1 — evitada pelo cache (não acontece)</title><circle cx="188.0" cy="246" r="10.5"/><text x="188.0" y="246">1</text></g><g class="no evitado"><title>f(0) = 1 — evitada pelo cache (não acontece)</title><circle cx="214.0" cy="246" r="10.5"/><text x="214.0" y="246">0</text></g><g class="no acerto"><title>f(3) = 3 — acerto de cache (retorna sem descer)</title><circle cx="188.0" cy="192" r="10.5"/><text x="188.0" y="192">3</text></g><g class="no base"><title>f(2) = 1 — caso base (responde 1 sem tocar no cache)</title><circle cx="240.0" cy="192" r="10.5"/><text x="240.0" y="192">2</text></g><g class="no calculado"><title>f(5) = 9 — calculada pela primeira vez (guarda no cache)</title><circle cx="168.5" cy="138" r="10.5"/><text x="168.5" y="138">5</text></g><g class="no evitado"><title>f(2) = 1 — evitada pelo cache (não acontece)</title><circle cx="266.0" cy="246" r="10.5"/><text x="266.0" y="246">2</text></g><g class="no evitado"><title>f(1) = 1 — evitada pelo cache (não acontece)</title><circle cx="292.0" cy="246" r="10.5"/><text x="292.0" y="246">1</text></g><g class="no evitado"><title>f(0) = 1 — evitada pelo cache (não acontece)</title><circle cx="318.0" cy="246" r="10.5"/><text x="318.0" y="246">0</text></g><g class="no evitado"><title>f(3) = 3 — evitada pelo cache (não acontece)</title><circle cx="292.0" cy="192" r="10.5"/><text x="292.0" y="192">3</text></g><g class="no evitado"><title>f(2) = 1 — evitada pelo cache (não acontece)</title><circle cx="344.0" cy="192" r="10.5"/><text x="344.0" y="192">2</text></g><g class="no evitado"><title>f(1) = 1 — evitada pelo cache (não acontece)</title><circle cx="370.0" cy="192" r="10.5"/><text x="370.0" y="192">1</text></g><g class="no acerto"><title>f(4) = 5 — acerto de cache (retorna sem descer)</title><circle cx="331.0" cy="138" r="10.5"/><text x="331.0" y="138">4</text></g><g class="no evitado"><title>f(2) = 1 — evitada pelo cache (não acontece)</title><circle cx="396.0" cy="192" r="10.5"/><text x="396.0" y="192">2</text></g><g class="no evitado"><title>f(1) = 1 — evitada pelo cache (não acontece)</title><circle cx="422.0" cy="192" r="10.5"/><text x="422.0" y="192">1</text></g><g class="no evitado"><title>f(0) = 1 — evitada pelo cache (não acontece)</title><circle cx="448.0" cy="192" r="10.5"/><text x="448.0" y="192">0</text></g><g class="no acerto"><title>f(3) = 3 — acerto de cache (retorna sem descer)</title><circle cx="422.0" cy="138" r="10.5"/><text x="422.0" y="138">3</text></g><g class="no calculado"><title>f(6) = 17 — calculada pela primeira vez (guarda no cache)</title><circle cx="295.3" cy="84" r="10.5"/><text x="295.3" y="84">6</text></g><g class="no evitado"><title>f(2) = 1 — evitada pelo cache (não acontece)</title><circle cx="474.0" cy="246" r="10.5"/><text x="474.0" y="246">2</text></g><g class="no evitado"><title>f(1) = 1 — evitada pelo cache (não acontece)</title><circle cx="500.0" cy="246" r="10.5"/><text x="500.0" y="246">1</text></g><g class="no evitado"><title>f(0) = 1 — evitada pelo cache (não acontece)</title><circle cx="526.0" cy="246" r="10.5"/><text x="526.0" y="246">0</text></g><g class="no evitado"><title>f(3) = 3 — evitada pelo cache (não acontece)</title><circle cx="500.0" cy="192" r="10.5"/><text x="500.0" y="192">3</text></g><g class="no evitado"><title>f(2) = 1 — evitada pelo cache (não acontece)</title><circle cx="552.0" cy="192" r="10.5"/><text x="552.0" y="192">2</text></g><g class="no evitado"><title>f(1) = 1 — evitada pelo cache (não acontece)</title><circle cx="578.0" cy="192" r="10.5"/><text x="578.0" y="192">1</text></g><g class="no evitado"><title>f(4) = 5 — evitada pelo cache (não acontece)</title><circle cx="539.0" cy="138" r="10.5"/><text x="539.0" y="138">4</text></g><g class="no evitado"><title>f(2) = 1 — evitada pelo cache (não acontece)</title><circle cx="604.0" cy="192" r="10.5"/><text x="604.0" y="192">2</text></g><g class="no evitado"><title>f(1) = 1 — evitada pelo cache (não acontece)</title><circle cx="630.0" cy="192" r="10.5"/><text x="630.0" y="192">1</text></g><g class="no evitado"><title>f(0) = 1 — evitada pelo cache (não acontece)</title><circle cx="656.0" cy="192" r="10.5"/><text x="656.0" y="192">0</text></g><g class="no evitado"><title>f(3) = 3 — evitada pelo cache (não acontece)</title><circle cx="630.0" cy="138" r="10.5"/><text x="630.0" y="138">3</text></g><g class="no evitado"><title>f(2) = 1 — evitada pelo cache (não acontece)</title><circle cx="682.0" cy="138" r="10.5"/><text x="682.0" y="138">2</text></g><g class="no acerto"><title>f(5) = 9 — acerto de cache (retorna sem descer)</title><circle cx="610.5" cy="84" r="10.5"/><text x="610.5" y="84">5</text></g><g class="no evitado"><title>f(2) = 1 — evitada pelo cache (não acontece)</title><circle cx="708.0" cy="192" r="10.5"/><text x="708.0" y="192">2</text></g><g class="no evitado"><title>f(1) = 1 — evitada pelo cache (não acontece)</title><circle cx="734.0" cy="192" r="10.5"/><text x="734.0" y="192">1</text></g><g class="no evitado"><title>f(0) = 1 — evitada pelo cache (não acontece)</title><circle cx="760.0" cy="192" r="10.5"/><text x="760.0" y="192">0</text></g><g class="no evitado"><title>f(3) = 3 — evitada pelo cache (não acontece)</title><circle cx="734.0" cy="138" r="10.5"/><text x="734.0" y="138">3</text></g><g class="no evitado"><title>f(2) = 1 — evitada pelo cache (não acontece)</title><circle cx="786.0" cy="138" r="10.5"/><text x="786.0" y="138">2</text></g><g class="no evitado"><title>f(1) = 1 — evitada pelo cache (não acontece)</title><circle cx="812.0" cy="138" r="10.5"/><text x="812.0" y="138">1</text></g><g class="no acerto"><title>f(4) = 5 — acerto de cache (retorna sem descer)</title><circle cx="773.0" cy="84" r="10.5"/><text x="773.0" y="84">4</text></g><g class="no calculado"><title>f(7) = 31 — calculada pela primeira vez (guarda no cache)</title><circle cx="534.1" cy="30" r="10.5"/><text x="534.1" y="30">7</text></g></g>
</svg>
