<svg xmlns="http://www.w3.org/2000/svg" viewBox="0 0 1036 288" width="1036" height="288" role="img" aria-label="Tempo mediano por n, nos dois modos, com eixo vertical logarítmico." font-family="system-ui, -apple-system, 'Segoe UI', sans-serif">
<style>
  svg {
  --superficie: #fcfcfb; --pagina: #f4f4f1;
  --texto: #14140f; --texto-suave: #52514e; --apagado: #8a8880;
  --grade: #e3e2da; --eixo: #c2c1b6; --borda: rgba(20, 20, 15, 0.12);
  --serie-1: #2a6fd6; --serie-2: #e0662c;
  --sobre-serie-1: #ffffff; --sobre-serie-2: #14140f; }
  @media (prefers-color-scheme: dark) { svg {
  --superficie: #1b1b19; --pagina: #101010;
  --texto: #f7f7f4; --texto-suave: #c4c3ba; --apagado: #8a8880;
  --grade: #2e2e2b; --eixo: #3b3b37; --borda: rgba(255, 255, 255, 0.12);
  --serie-1: #4b90ea; --serie-2: #ef7c43;
  --sobre-serie-1: #101010; --sobre-serie-2: #101010; } }

  .fundo { fill: var(--superficie); }
  .titulo-painel { fill: var(--texto); font-size: 13px; font-weight: 600; }
  .grade { stroke: var(--grade); stroke-width: 1; }
  .linha-base { stroke: var(--eixo); stroke-width: 1; }
  .eixo { fill: var(--apagado); font-size: 11px; font-variant-numeric: tabular-nums; }
  .legenda-texto { fill: var(--texto-suave); font-size: 12px; }
  .serie { fill: none; stroke-width: 2; stroke-linejoin: round; stroke-linecap: round; }
  .serie.s1, .chave-linha.s1 { stroke: var(--serie-1); }
  .serie.s2, .chave-linha.s2 { stroke: var(--serie-2); }
  .chave-linha { stroke-width: 2; stroke-linecap: round; }
  .ponto { stroke: var(--superficie); stroke-width: 2; }
  .ponto.s1 { fill: var(--serie-1); }
  .ponto.s2 { fill: var(--serie-2); }
  .aresta { stroke: var(--eixo); stroke-width: 1.5; }
  .aresta.evitado { stroke: var(--grade); }
  .no circle { stroke: var(--superficie); stroke-width: 2; }
  .no.calculado circle { fill: var(--serie-1); }
  .no.acerto circle { fill: var(--serie-2); }
  .no.base circle { fill: var(--superficie); stroke: var(--eixo); stroke-width: 1.5; }
  .no.evitado circle { fill: var(--superficie); stroke: var(--grade); stroke-width: 1; }
  .no text { font-size: 11px; font-weight: 600; text-anchor: middle; dominant-baseline: central; }
  .no.calculado text { fill: var(--sobre-serie-1); }
  .no.acerto text { fill: var(--sobre-serie-2); }
  .no.base text { fill: var(--texto-suave); }
  .no.evitado text { fill: var(--apagado); font-weight: 400; }
</style>
<rect class="fundo" width="100%" height="100%"/>
<g transform="translate(16, 16)"><line class="chave-linha s1" x1="0" x2="16" y1="0" y2="0"/><text class="legenda-texto" x="24" y="0" dy="0.32em">Recursiva sem cache</text><line class="chave-linha s2" x1="176" x2="192" y1="0" y2="0"/><text class="legenda-texto" x="200" y="0" dy="0.32em">Recursiva com cache</text></g><svg x="16" y="42" width="320" height="230" viewBox="0 0 320 230"><text class="titulo-painel" x="0" y="14">Fatorial</text><line class="grade" x1="60" x2="306" y1="188.0" y2="188.0"/><text class="eixo" x="52" y="188.0" dy="0.32em" text-anchor="end">100 ns</text><line class="grade" x1="60" x2="306" y1="157.2" y2="157.2"/><text class="eixo" x="52" y="157.2" dy="0.32em" text-anchor="end">1,00 µs</text><line class="grade" x1="60" x2="306" y1="126.4" y2="126.4"/><text class="eixo" x="52" y="126.4" dy="0.32em" text-anchor="end">10,00 µs</text><line class="grade" x1="60" x2="306" y1="95.6" y2="95.6"/><text class="eixo" x="52" y="95.6" dy="0.32em" text-anchor="end">100,00 µs</text><line class="grade" x1="60" x2="306" y1="64.8" y2="64.8"/><text class="eixo" x="52" y="64.8" dy="0.32em" text-anchor="end">1,00 ms</text><line class="grade" x1="60" x2="306" y1="34.0" y2="34.0"/><text class="eixo" x="52" y="34.0" dy="0.32em" text-anchor="end">10,00 ms</text><line class="linha-base" x1="60" x2="306" y1="188" y2="188"/><text class="eixo" x="72.0" y="205" text-anchor="middle">10</text><text class="eixo" x="116.0" y="205" text-anchor="middle">1.000</text><text class="eixo" x="182.8" y="205" text-anchor="middle">2.500</text><text class="eixo" x="294.0" y="205" text-anchor="middle">5.000</text><text class="eixo" x="183" y="222" text-anchor="middle">n</text><path class="serie s1" d="M72.0,174.5 L76.0,130.1 L93.8,102.1 L116.0,87.0 L182.8,64.5 L294.0,46.1"/><path class="serie s2" d="M72.0,163.1 L76.0,125.9 L93.8,98.9 L116.0,84.5 L182.8,62.0 L294.0,43.8"/><circle class="ponto s1" cx="72.0" cy="174.5" r="3.5"><title>Sem cache — n = 10: 274 ns</title></circle><circle class="ponto s1" cx="76.0" cy="130.1" r="3.5"><title>Sem cache — n = 100: 7,58 µs</title></circle><circle class="ponto s1" cx="93.8" cy="102.1" r="3.5"><title>Sem cache — n = 500: 61,35 µs</title></circle><circle class="ponto s1" cx="116.0" cy="87.0" r="3.5"><title>Sem cache — n = 1.000: 189,81 µs</title></circle><circle class="ponto s1" cx="182.8" cy="64.5" r="3.5"><title>Sem cache — n = 2.500: 1,02 ms</title></circle><circle class="ponto s1" cx="294.0" cy="46.1" r="3.5"><title>Sem cache — n = 5.000: 4,06 ms</title></circle><circle class="ponto s2" cx="72.0" cy="163.1" r="3.5"><title>Com cache — n = 10: 645 ns</title></circle><circle class="ponto s2" cx="76.0" cy="125.9" r="3.5"><title>Com cache — n = 100: 10,34 µs</title></circle><circle class="ponto s2" cx="93.8" cy="98.9" r="3.5"><title>Com cache — n = 500: 78,07 µs</title></circle><circle class="ponto s2" cx="116.0" cy="84.5" r="3.5"><title>Com cache — n = 1.000: 228,68 µs</title></circle><circle class="ponto s2" cx="182.8" cy="62.0" r="3.5"><title>Com cache — n = 2.500: 1,23 ms</title></circle><circle class="ponto s2" cx="294.0" cy="43.8" r="3.5"><title>Com cache — n = 5.000: 4,79 ms</title></circle></svg><svg x="358" y="42" width="320" height="230" viewBox="0 0 320 230"><text class="titulo-painel" x="0" y="14">Fibonacci</text><line class="grade" x1="60" x2="306" y1="188.0" y2="188.0"/><text class="eixo" x="52" y="188.0" dy="0.32em" text-anchor="end">100 ns</text><line class="grade" x1="60" x2="306" y1="166.0" y2="166.0"/><text class="eixo" x="52" y="166.0" dy="0.32em" text-anchor="end">1,00 µs</text><line class="grade" x1="60" x2="306" y1="144.0" y2="144.0"/><text class="eixo" x="52" y="144.0" dy="0.32em" text-anchor="end">10,00 µs</text><line class="grade" x1="60" x2="306" y1="122.0" y2="122.0"/><text class="eixo" x="52" y="122.0" dy="0.32em" text-anchor="end">100,00 µs</text><line class="grade" x1="60" x2="306" y1="100.0" y2="100.0"/><text class="eixo" x="52" y="100.0" dy="0.32em" text-anchor="end">1,00 ms</text><line class="grade" x1="60" x2="306" y1="78.0" y2="78.0"/><text class="eixo" x="52" y="78.0" dy="0.32em" text-anchor="end">10,00 ms</text><line class="grade" x1="60" x2="306" y1="56.0" y2="56.0"/><text class="eixo" x="52" y="56.0" dy="0.32em" text-anchor="end">100,00 ms</text><line class="grade" x1="60" x2="306" y1="34.0" y2="34.0"/><text class="eixo" x="52" y="34.0" dy="0.32em" text-anchor="end">1,000 s</text><line class="linha-base" x1="60" x2="306" y1="188" y2="188"/><text class="eixo" x="72.0" y="205" text-anchor="middle">10</text><text class="eixo" x="116.4" y="205" text-anchor="middle">15</text><text class="eixo" x="160.8" y="205" text-anchor="middle">20</text><text class="eixo" x="205.2" y="205" text-anchor="middle">25</text><text class="eixo" x="249.6" y="205" text-anchor="middle">30</text><text class="eixo" x="294.0" y="205" text-anchor="middle">35</text><text class="eixo" x="183" y="222" text-anchor="middle">n</text><path class="serie s1" d="M72.0,165.5 L116.4,142.5 L160.8,119.3 L205.2,96.4 L249.6,73.5 L294.0,50.2"/><path class="serie s2" d="M72.0,172.7 L116.4,170.2 L160.8,165.0 L205.2,163.6 L249.6,162.4 L294.0,158.7"/><circle class="ponto s1" cx="72.0" cy="165.5" r="3.5"><title>Sem cache — n = 10: 1,06 µs</title></circle><circle class="ponto s1" cx="116.4" cy="142.5" r="3.5"><title>Sem cache — n = 15: 11,73 µs</title></circle><circle class="ponto s1" cx="160.8" cy="119.3" r="3.5"><title>Sem cache — n = 20: 132,96 µs</title></circle><circle class="ponto s1" cx="205.2" cy="96.4" r="3.5"><title>Sem cache — n = 25: 1,46 ms</title></circle><circle class="ponto s1" cx="249.6" cy="73.5" r="3.5"><title>Sem cache — n = 30: 15,97 ms</title></circle><circle class="ponto s1" cx="294.0" cy="50.2" r="3.5"><title>Sem cache — n = 35: 183,11 ms</title></circle><circle class="ponto s2" cx="72.0" cy="172.7" r="3.5"><title>Com cache — n = 10: 494 ns</title></circle><circle class="ponto s2" cx="116.4" cy="170.2" r="3.5"><title>Com cache — n = 15: 647 ns</title></circle><circle class="ponto s2" cx="160.8" cy="165.0" r="3.5"><title>Com cache — n = 20: 1,11 µs</title></circle><circle class="ponto s2" cx="205.2" cy="163.6" r="3.5"><title>Com cache — n = 25: 1,28 µs</title></circle><circle class="ponto s2" cx="249.6" cy="162.4" r="3.5"><title>Com cache — n = 30: 1,46 µs</title></circle><circle class="ponto s2" cx="294.0" cy="158.7" r="3.5"><title>Com cache — n = 35: 2,15 µs</title></circle></svg><svg x="700" y="42" width="320" height="230" viewBox="0 0 320 230"><text class="titulo-painel" x="0" y="14">Tribonacci</text><line class="grade" x1="60" x2="306" y1="188.0" y2="188.0"/><text class="eixo" x="52" y="188.0" dy="0.32em" text-anchor="end">100 ns</text><line class="grade" x1="60" x2="306" y1="166.0" y2="166.0"/><text class="eixo" x="52" y="166.0" dy="0.32em" text-anchor="end">1,00 µs</text><line class="grade" x1="60" x2="306" y1="144.0" y2="144.0"/><text class="eixo" x="52" y="144.0" dy="0.32em" text-anchor="end">10,00 µs</text><line class="grade" x1="60" x2="306" y1="122.0" y2="122.0"/><text class="eixo" x="52" y="122.0" dy="0.32em" text-anchor="end">100,00 µs</text><line class="grade" x1="60" x2="306" y1="100.0" y2="100.0"/><text class="eixo" x="52" y="100.0" dy="0.32em" text-anchor="end">1,00 ms</text><line class="grade" x1="60" x2="306" y1="78.0" y2="78.0"/><text class="eixo" x="52" y="78.0" dy="0.32em" text-anchor="end">10,00 ms</text><line class="grade" x1="60" x2="306" y1="56.0" y2="56.0"/><text class="eixo" x="52" y="56.0" dy="0.32em" text-anchor="end">100,00 ms</text><line class="grade" x1="60" x2="306" y1="34.0" y2="34.0"/><text class="eixo" x="52" y="34.0" dy="0.32em" text-anchor="end">1,000 s</text><line class="linha-base" x1="60" x2="306" y1="188" y2="188"/><text class="eixo" x="72.0" y="205" text-anchor="middle">7</text><text class="eixo" x="149.2" y="205" text-anchor="middle">15</text><text class="eixo" x="197.5" y="205" text-anchor="middle">20</text><text class="eixo" x="245.7" y="205" text-anchor="middle">25</text><text class="eixo" x="294.0" y="205" text-anchor="middle">30</text><text class="eixo" x="183" y="222" text-anchor="middle">n</text><path class="serie s1" d="M72.0,178.6 L101.0,161.0 L149.2,132.3 L197.5,103.2 L245.7,73.7 L294.0,44.9"/><path class="serie s2" d="M72.0,177.7 L101.0,174.8 L149.2,168.5 L197.5,163.8 L245.7,162.1 L294.0,160.9"/><circle class="ponto s1" cx="72.0" cy="178.6" r="3.5"><title>Sem cache — n = 7: 267 ns</title></circle><circle class="ponto s1" cx="101.0" cy="161.0" r="3.5"><title>Sem cache — n = 10: 1,69 µs</title></circle><circle class="ponto s1" cx="149.2" cy="132.3" r="3.5"><title>Sem cache — n = 15: 34,07 µs</title></circle><circle class="ponto s1" cx="197.5" cy="103.2" r="3.5"><title>Sem cache — n = 20: 713,88 µs</title></circle><circle class="ponto s1" cx="245.7" cy="73.7" r="3.5"><title>Sem cache — n = 25: 15,74 ms</title></circle><circle class="ponto s1" cx="294.0" cy="44.9" r="3.5"><title>Sem cache — n = 30: 319,49 ms</title></circle><circle class="ponto s2" cx="72.0" cy="177.7" r="3.5"><title>Com cache — n = 7: 295 ns</title></circle><circle class="ponto s2" cx="101.0" cy="174.8" r="3.5"><title>Com cache — n = 10: 398 ns</title></circle><circle class="ponto s2" cx="149.2" cy="168.5" r="3.5"><title>Com cache — n = 15: 768 ns</title></circle><circle class="ponto s2" cx="197.5" cy="163.8" r="3.5"><title>Com cache — n = 20: 1,26 µs</title></circle><circle class="ponto s2" cx="245.7" cy="162.1" r="3.5"><title>Com cache — n = 25: 1,51 µs</title></circle><circle class="ponto s2" cx="294.0" cy="160.9" r="3.5"><title>Com cache — n = 30: 1,71 µs</title></circle></svg>
</svg>
